<svg width="379" height="143" viewBox="0 0 379 143" fill="none" xmlns="http://www.w3.org/2000/svg">
<path d="M150.084 102.261C150.084 101.322 150.409 100.528 151.059 99.8758C151.709 99.2264 152.504 98.9011 153.444 98.9011H176.856C178.951 98.9011 180.759 98.1424 182.276 96.6251C183.792 95.1078 184.552 93.3011 184.552 91.2051C184.552 89.1104 183.792 87.3038 182.276 85.7864C180.759 84.2691 178.951 83.5104 176.856 83.5104H164.173C162.079 83.5104 160.111 83.1131 158.268 82.3171C156.425 81.5224 154.817 80.4384 153.444 79.0664C152.071 77.6931 150.988 76.0851 150.192 74.2438C149.397 72.3998 149 70.4304 149 68.3358C149 66.2398 149.397 64.2531 150.192 62.3744C150.988 60.4958 152.071 58.8704 153.444 57.4971C154.817 56.1238 156.425 55.0398 158.268 54.2451C160.111 53.4504 162.079 53.0531 164.173 53.0531H186.285C187.224 53.0531 188.019 53.3784 188.669 54.0291C189.321 54.6784 189.645 55.4744 189.645 56.4131C189.645 57.3531 189.321 58.1478 188.669 58.7971C188.019 59.4491 187.224 59.7731 186.285 59.7731H164.173C161.863 59.8451 159.875 60.7131 158.213 62.3744C156.552 64.0371 155.72 66.0238 155.72 68.3358C155.72 70.6491 156.552 72.6358 158.213 74.2971C159.875 75.9584 161.863 76.7891 164.173 76.7891H176.856C178.807 76.7891 180.668 77.1691 182.439 77.9278C184.208 78.6864 185.743 79.7158 187.045 81.0171C188.344 82.3171 189.375 83.8531 190.133 85.6238C190.891 87.3944 191.272 89.2544 191.272 91.2051C191.272 93.1571 190.891 95.0171 190.133 96.7878C189.375 98.5584 188.344 100.094 187.045 101.394C185.743 102.694 184.208 103.725 182.439 104.484C180.668 105.241 178.807 105.621 176.856 105.621H153.444C152.504 105.621 151.709 105.296 151.059 104.646C150.409 103.996 150.084 103.201 150.084 102.261Z" fill="#03A1DB"/>
<path d="M256.958 53.1597C260.427 53.1597 263.732 53.8637 266.875 55.2731C270.019 56.6824 272.782 58.5784 275.166 60.9651C277.551 63.3491 279.448 66.1304 280.858 69.3091C282.266 72.4891 282.971 75.8851 282.971 79.4984C282.971 83.0397 282.284 86.3811 280.912 89.5237C279.539 92.6677 277.678 95.4317 275.33 97.8171C272.982 100.201 270.216 102.08 267.038 103.453C263.858 104.825 260.427 105.512 256.74 105.512C253.127 105.512 249.75 104.862 246.606 103.561C243.463 102.261 240.699 100.454 238.315 98.1424C235.93 95.8291 234.05 93.0837 232.678 89.9037C231.304 86.7251 230.619 83.2557 230.619 79.4984C230.619 75.8851 231.287 72.5077 232.623 69.3637C233.96 66.2211 235.803 63.4744 238.152 61.1264C240.499 58.7784 243.282 56.8997 246.498 55.4904C249.712 54.0811 253.2 53.3037 256.958 53.1597ZM237.339 79.4984C237.339 82.1717 237.844 84.6837 238.856 87.0317C239.868 89.3797 241.259 91.4384 243.03 93.2104C244.799 94.9797 246.859 96.3717 249.207 97.3824C251.555 98.3944 254.067 98.9011 256.74 98.9011C259.415 98.9011 261.943 98.3944 264.327 97.3824C266.711 96.3717 268.79 94.9797 270.56 93.2104C272.331 91.4384 273.722 89.3797 274.734 87.0317C275.746 84.6837 276.251 82.1717 276.251 79.4984C276.251 76.8251 275.746 74.2957 274.734 71.9104C273.722 69.5264 272.331 67.4491 270.56 65.6784C268.79 63.9091 266.711 62.5171 264.327 61.5064C261.943 60.4944 259.415 59.9891 256.74 59.9891C254.067 59.9891 251.555 60.4944 249.207 61.5064C246.859 62.5171 244.799 63.9091 243.03 65.6784C241.259 67.4491 239.868 69.5264 238.856 71.9104C237.844 74.2957 237.339 76.8251 237.339 79.4984" fill="#03A1DB"/>
<path d="M211.415 53.1597C214.884 53.1597 218.188 53.8637 221.332 55.2731C224.476 56.6824 227.239 58.5784 229.623 60.9651C232.008 63.3491 233.906 66.1304 235.315 69.3091C236.723 72.4891 237.428 75.8851 237.428 79.4984C237.428 83.0397 236.742 86.3811 235.37 89.5237C233.996 92.6677 232.135 95.4317 229.787 97.8171C227.439 100.201 224.674 102.08 221.495 103.453C218.316 104.825 214.884 105.512 211.199 105.512C207.584 105.512 204.207 104.862 201.063 103.561C197.92 102.261 195.156 100.454 192.772 98.1424C190.387 95.8291 188.507 93.0837 187.135 89.9037C185.762 86.7251 185.076 83.2557 185.076 79.4984C185.076 75.8851 185.744 72.5077 187.08 69.3637C188.418 66.2211 190.26 63.4744 192.61 61.1264C194.956 58.7784 197.739 56.8997 200.955 55.4904C204.17 54.0811 207.658 53.3037 211.415 53.1597ZM191.796 79.4984C191.796 82.1717 192.302 84.6837 193.314 87.0317C194.326 89.3797 195.716 91.4384 197.487 93.2104C199.256 94.9797 201.316 96.3717 203.664 97.3824C206.014 98.3944 208.524 98.9011 211.199 98.9011C213.871 98.9011 216.4 98.3944 218.784 97.3824C221.168 96.3717 223.248 94.9797 225.018 93.2104C226.788 91.4384 228.178 89.3797 229.191 87.0317C230.203 84.6837 230.708 82.1717 230.708 79.4984C230.708 76.8251 230.203 74.2957 229.191 71.9104C228.178 69.5264 226.788 67.4491 225.018 65.6784C223.248 63.9091 221.168 62.5171 218.784 61.5064C216.4 60.4944 213.871 59.9891 211.199 59.9891C208.524 59.9891 206.014 60.4944 203.664 61.5064C201.316 62.5171 199.256 63.9091 197.487 65.6784C195.716 67.4491 194.326 69.5264 193.314 71.9104C192.302 74.2957 191.796 76.8251 191.796 79.4984" fill="#03A1DB"/>
<path d="M302.589 53.1597C306.058 53.1597 309.362 53.8637 312.506 55.2731C315.65 56.6824 318.413 58.5784 320.797 60.9651C323.182 63.3491 325.079 66.1304 326.489 69.3091C327.897 72.4891 328.602 75.8851 328.602 79.4984C328.602 83.0397 327.915 86.3811 326.542 89.5237C325.17 92.6677 323.309 95.4317 320.961 97.8171C318.613 100.201 315.847 102.08 312.669 103.453C309.489 104.825 306.058 105.512 302.371 105.512C298.758 105.512 295.381 104.862 292.237 103.561C289.094 102.261 286.33 100.454 283.946 98.1424C281.561 95.8291 279.681 93.0837 278.309 89.9037C276.935 86.7251 276.25 83.2557 276.25 79.4984C276.25 75.8851 276.918 72.5077 278.254 69.3637C279.591 66.2211 281.434 63.4744 283.783 61.1264C286.13 58.7784 288.913 56.8997 292.127 55.4904C295.343 54.0811 298.831 53.3037 302.589 53.1597ZM282.97 79.4984C282.97 82.1717 283.475 84.6837 284.487 87.0317C285.499 89.3797 286.89 91.4384 288.659 93.2104C290.43 94.9797 292.49 96.3717 294.838 97.3824C297.186 98.3944 299.698 98.9011 302.371 98.9011C305.045 98.9011 307.574 98.3944 309.958 97.3824C312.342 96.3717 314.421 94.9797 316.191 93.2104C317.962 91.4384 319.351 89.3797 320.365 87.0317C321.377 84.6837 321.882 82.1717 321.882 79.4984C321.882 76.8251 321.377 74.2957 320.365 71.9104C319.351 69.5264 317.962 67.4491 316.191 65.6784C314.421 63.9091 312.342 62.5171 309.958 61.5064C307.574 60.4944 305.045 59.9891 302.371 59.9891C299.698 59.9891 297.186 60.4944 294.838 61.5064C292.49 62.5171 290.43 63.9091 288.659 65.6784C286.89 67.4491 285.499 69.5264 284.487 71.9104C283.475 74.2957 282.97 76.8251 282.97 79.4984" fill="#03A1DB"/>
<path d="M326.68 79.1211C326.68 75.5078 327.368 72.1118 328.74 68.9318C330.112 65.7531 331.973 62.9891 334.321 60.6411C336.67 58.2918 339.433 56.4318 342.613 55.0584C345.793 53.6851 349.189 52.9998 352.802 52.9998C356.416 52.9998 359.812 53.6851 362.989 55.0584C366.169 56.4318 368.933 58.2918 371.282 60.6411C373.63 62.9891 375.49 65.7531 376.864 68.9318C378.237 72.1118 378.924 75.5078 378.924 79.1211V102.316C378.924 103.256 378.597 104.05 377.948 104.701C377.297 105.35 376.502 105.676 375.564 105.676C374.624 105.676 373.829 105.35 373.178 104.701C372.529 104.05 372.204 103.256 372.204 102.316V79.1211C372.204 76.4478 371.697 73.9358 370.685 71.5878C369.674 69.2385 368.282 67.1798 366.513 65.4104C364.742 63.6398 362.684 62.2478 360.334 61.2371C357.985 60.2251 355.476 59.7198 352.802 59.7198C350.129 59.7198 347.617 60.2251 345.269 61.2371C342.921 62.2478 340.861 63.6398 339.092 65.4104C337.32 67.1798 335.93 69.2385 334.918 71.5878C333.906 73.9358 333.4 76.4478 333.4 79.1211V102.316C333.4 103.256 333.076 104.05 332.425 104.701C331.774 105.35 330.98 105.676 330.041 105.676C329.1 105.676 328.306 105.35 327.656 104.701C327.005 104.05 326.68 103.256 326.68 102.316V79.1211Z" fill="#03A1DB"/>
<path fill-rule="evenodd" clip-rule="evenodd" d="M211.252 69.8865C216.471 69.8865 220.701 74.1172 220.701 79.3358C220.701 84.5545 216.471 88.7852 211.252 88.7852C206.033 88.7852 201.803 84.5545 201.803 79.3358C201.803 74.1172 206.033 69.8865 211.252 69.8865Z" fill="#FF0000"/>
<path fill-rule="evenodd" clip-rule="evenodd" d="M302.425 69.8865C297.206 69.8865 292.977 74.1172 292.977 79.3358C292.977 84.5545 297.206 88.7852 302.425 88.7852C307.643 88.7852 311.874 84.5545 311.874 79.3358C311.874 74.1172 307.643 69.8865 302.425 69.8865Z" fill="#009933"/>
<path fill-rule="evenodd" clip-rule="evenodd" d="M256.794 69.8865C251.575 69.8865 247.346 74.1172 247.346 79.3358C247.346 84.5545 251.575 88.7852 256.794 88.7852C262.012 88.7852 266.243 84.5545 266.243 79.3358C266.243 74.1172 262.012 69.8865 256.794 69.8865Z" fill="#FFCC00"/>
<path d="M216.446 119.4C214.769 117.713 214.777 114.986 216.464 113.31C218.149 111.633 220.876 111.64 222.553 113.326C227.004 117.81 232.334 121.428 238.264 123.897C243.956 126.266 250.214 127.576 256.794 127.576C263.374 127.576 269.634 126.266 275.325 123.897C281.256 121.428 286.585 117.81 291.037 113.326C292.714 111.64 295.441 111.633 297.128 113.31C298.813 114.986 298.821 117.713 297.144 119.4C291.894 124.689 285.614 128.952 278.633 131.86C271.897 134.664 264.52 136.213 256.794 136.213C249.072 136.213 241.693 134.664 234.958 131.86C227.976 128.952 221.697 124.689 216.446 119.4Z" fill="#03A1DB"/>
<path d="M12.1805 106.735C10.7805 106.735 9.73047 106.35 9.03047 105.58C8.33047 104.81 7.98047 103.725 7.98047 102.325V58.5398C7.98047 57.1398 8.33047 56.0898 9.03047 55.3898C9.73047 54.6198 10.7455 54.2348 12.0755 54.2348C13.4055 54.2348 14.4205 54.6198 15.1205 55.3898C15.8905 56.0898 16.2755 57.1398 16.2755 58.5398V67.5698L15.1205 66.3098C16.5905 62.2498 18.9705 59.2048 22.2605 57.1748C25.6205 55.0748 29.4705 54.0248 33.8105 54.0248C37.8705 54.0248 41.2305 54.7598 43.8905 56.2298C46.6205 57.6998 48.6505 59.9398 49.9805 62.9498C51.3105 65.8898 51.9755 69.6348 51.9755 74.1848V102.325C51.9755 103.725 51.5905 104.81 50.8205 105.58C50.1205 106.35 49.1055 106.735 47.7755 106.735C46.3755 106.735 45.2905 106.35 44.5205 105.58C43.8205 104.81 43.4705 103.725 43.4705 102.325V74.7098C43.4705 69.9498 42.5255 66.4848 40.6355 64.3148C38.8155 62.0748 35.8755 60.9548 31.8155 60.9548C27.1255 60.9548 23.3805 62.4248 20.5805 65.3648C17.8505 68.2348 16.4855 72.0848 16.4855 76.9148V102.325C16.4855 105.265 15.0505 106.735 12.1805 106.735Z" fill="#003399"/>
<path d="M85.6532 106.945C80.2632 106.945 75.6082 105.895 71.6882 103.795C67.8382 101.625 64.8282 98.5798 62.6582 94.6598C60.5582 90.7398 59.5082 86.0498 59.5082 80.5898C59.5082 75.2698 60.5582 70.6498 62.6582 66.7298C64.7582 62.7398 67.6282 59.6248 71.2682 57.3848C74.9782 55.1448 79.2482 54.0248 84.0782 54.0248C87.5082 54.0248 90.5882 54.6198 93.3182 55.8098C96.0482 56.9298 98.3582 58.5748 100.248 60.7448C102.208 62.9148 103.678 65.5398 104.658 68.6198C105.708 71.6998 106.233 75.1648 106.233 79.0148C106.233 80.1348 105.918 80.9748 105.288 81.5348C104.658 82.0248 103.748 82.2698 102.558 82.2698H66.0182V76.7048H100.563L98.8832 78.0698C98.8832 74.2898 98.3232 71.1048 97.2032 68.5148C96.0832 65.8548 94.4382 63.8248 92.2682 62.4248C90.1682 61.0248 87.5082 60.3248 84.2882 60.3248C80.7182 60.3248 77.6732 61.1648 75.1532 62.8448C72.7032 64.4548 70.8482 66.7298 69.5882 69.6698C68.3282 72.5398 67.6982 75.8998 67.6982 79.7498V80.3798C67.6982 86.8198 69.2382 91.7198 72.3182 95.0798C75.4682 98.4398 79.9132 100.12 85.6532 100.12C88.0332 100.12 90.3782 99.8048 92.6882 99.1748C95.0682 98.5448 97.3782 97.4948 99.6182 96.0248C100.598 95.3948 101.473 95.1148 102.243 95.1848C103.083 95.1848 103.748 95.4298 104.238 95.9198C104.728 96.3398 105.043 96.8998 105.183 97.5998C105.393 98.2298 105.323 98.9298 104.973 99.6998C104.693 100.47 104.098 101.135 103.188 101.695C100.878 103.375 98.1482 104.67 94.9982 105.58C91.8482 106.49 88.7332 106.945 85.6532 106.945Z" fill="#003399"/>
<path d="M134.017 106.945C130.027 106.945 126.667 106.245 123.937 104.845C121.277 103.375 119.282 101.275 117.952 98.5448C116.622 95.7448 115.957 92.3498 115.957 88.3598V61.5848H108.922C107.732 61.5848 106.822 61.3048 106.192 60.7448C105.562 60.1148 105.247 59.2748 105.247 58.2248C105.247 57.1748 105.562 56.3698 106.192 55.8098C106.822 55.2498 107.732 54.9698 108.922 54.9698H115.957V42.8948C115.957 41.4948 116.342 40.4448 117.112 39.7448C117.882 38.9748 118.932 38.5898 120.262 38.5898C121.592 38.5898 122.607 38.9748 123.307 39.7448C124.077 40.4448 124.462 41.4948 124.462 42.8948V54.9698H137.692C138.882 54.9698 139.792 55.2498 140.422 55.8098C141.052 56.3698 141.367 57.1748 141.367 58.2248C141.367 59.2748 141.052 60.1148 140.422 60.7448C139.792 61.3048 138.882 61.5848 137.692 61.5848H124.462V87.5198C124.462 91.5098 125.302 94.5548 126.982 96.6548C128.662 98.6848 131.392 99.6998 135.172 99.6998C136.502 99.6998 137.622 99.5598 138.532 99.2798C139.512 98.9998 140.317 98.8598 140.947 98.8598C141.577 98.7898 142.102 98.9998 142.522 99.4898C142.942 99.9798 143.152 100.82 143.152 102.01C143.152 102.85 142.977 103.62 142.627 104.32C142.347 105.02 141.822 105.51 141.052 105.79C140.212 106.07 139.092 106.315 137.692 106.525C136.362 106.805 135.137 106.945 134.017 106.945Z" fill="#003399"/>
</svg>
